<svg width="32" height="32" viewBox="0 0 32 32" fill="none" xmlns="http://www.w3.org/2000/svg">
<circle cx="16" cy="16" r="16" fill="#003380"/>
<g clip-path="url(#clip0_4_241)">
<path d="M17.2812 16C17.2812 19.1063 14.7563 21.625 11.64 21.625C10.9003 21.626 10.1677 21.4813 9.48396 21.1991C8.80022 20.917 8.17875 20.5029 7.65502 19.9806C7.1313 19.4583 6.71559 18.8379 6.43162 18.1549C6.14765 17.4719 6.00098 16.7397 6 16C6 12.8925 8.525 10.375 11.64 10.375C12.3798 10.3739 13.1125 10.5184 13.7964 10.8005C14.4803 11.0826 15.1019 11.4966 15.6258 12.019C16.1496 12.5413 16.5655 13.1618 16.8495 13.8448C17.1336 14.5279 17.2803 15.2602 17.2812 16ZM23.4688 16C23.4688 18.925 22.2062 21.295 20.6488 21.295C19.0912 21.295 17.8288 18.9238 17.8288 16C17.8288 13.075 19.0912 10.705 20.6488 10.705C22.2062 10.705 23.4688 13.0763 23.4688 16ZM26 16C26 18.62 25.5562 20.7438 25.0075 20.7438C24.46 20.7438 24.0163 18.6188 24.0163 16C24.0163 13.38 24.46 11.2563 25.0087 11.2563C25.5562 11.2563 26 13.38 26 16Z" fill="#5CE1E6"/>
</g>
<defs>
<clipPath id="clip0_4_241">
<rect width="20" height="20" fill="white" transform="translate(6 6)"/>
</clipPath>
</defs>
</svg>
