<svg width="32" height="32" viewBox="0 0 32 32" fill="none" xmlns="http://www.w3.org/2000/svg">
<circle cx="16" cy="16" r="16" fill="#003380"/>
<path d="M18.35 9.55005C18.1845 9.84645 18.037 10.1526 17.9083 10.4667C16.644 10.2668 15.356 10.2668 14.0917 10.4667C13.963 10.1526 13.8155 9.84645 13.65 9.55005C12.459 9.75355 11.3012 10.118 10.2083 10.6334C8.25412 13.4536 7.36786 16.8775 7.70833 20.2917C8.98186 21.2491 10.4112 21.9793 11.9333 22.45C12.2799 21.9922 12.5893 21.5073 12.8583 21C12.3617 20.8169 11.8844 20.5853 11.4333 20.3084C11.5571 20.2261 11.6741 20.1341 11.7833 20.0334C13.0987 20.667 14.54 20.996 16 20.996C17.46 20.996 18.9013 20.667 20.2167 20.0334C20.3333 20.1334 20.45 20.225 20.5667 20.3084C20.1131 20.5831 19.6363 20.8173 19.1417 21.0084C19.3996 21.5272 19.7006 22.0234 20.0417 22.4917C21.5619 22.0226 22.9888 21.2922 24.2583 20.3334C24.607 16.9186 23.72 13.4919 21.7583 10.675C20.6778 10.149 19.5314 9.77061 18.35 9.55005ZM13.2333 18.3417C12.8163 18.3118 12.4271 18.1215 12.1474 17.8107C11.8677 17.4999 11.7193 17.0929 11.7333 16.675C11.7172 16.2566 11.8649 15.8485 12.145 15.5372C12.4251 15.226 12.8155 15.0363 13.2333 15.0084C13.6511 15.0363 14.0416 15.226 14.3217 15.5372C14.6018 15.8485 14.7494 16.2566 14.7333 16.675C14.7494 17.0935 14.6018 17.5016 14.3217 17.8129C14.0416 18.1241 13.6511 18.3138 13.2333 18.3417ZM18.7667 18.3417C18.3497 18.3118 17.9605 18.1215 17.6808 17.8107C17.4011 17.4999 17.2527 17.0929 17.2667 16.675C17.2505 16.2566 17.3982 15.8485 17.6783 15.5372C17.9584 15.226 18.3489 15.0363 18.7667 15.0084C19.1852 15.0342 19.5769 15.2233 19.8575 15.535C20.138 15.8467 20.2849 16.2561 20.2667 16.675C20.2849 17.094 20.138 17.5034 19.8575 17.8151C19.5769 18.1268 19.1852 18.3159 18.7667 18.3417Z" fill="#5CE1E6"/>
</svg>
