<svg width="32" height="32" viewBox="0 0 32 32" fill="none" xmlns="http://www.w3.org/2000/svg">
<circle cx="16" cy="16" r="16" fill="#003380"/>
<path d="M22.3608 12.6641C22.3717 12.81 22.3717 12.955 22.3717 13.1C22.3717 17.5375 18.9942 22.6508 12.8217 22.6508C10.92 22.6508 9.15333 22.1 7.66667 21.1433C7.93667 21.1741 8.19667 21.185 8.4775 21.185C9.98833 21.1886 11.4564 20.6834 12.645 19.7508C11.9445 19.7381 11.2655 19.507 10.7027 19.0897C10.1399 18.6725 9.72149 18.0899 9.50583 17.4233C9.71333 17.4541 9.92167 17.475 10.14 17.475C10.4408 17.475 10.7433 17.4333 11.0242 17.3608C10.264 17.2073 9.58039 16.7952 9.08968 16.1947C8.59897 15.5941 8.33141 14.8422 8.3325 14.0666V14.025C8.78 14.2741 9.29917 14.43 9.84917 14.4508C9.38841 14.1446 9.0106 13.7291 8.74945 13.2414C8.4883 12.7538 8.35193 12.209 8.3525 11.6558C8.3525 11.0325 8.51833 10.4608 8.80917 9.96245C9.65262 11 10.7046 11.8488 11.8969 12.4538C13.0893 13.0589 14.3955 13.4068 15.7308 13.475C15.6792 13.225 15.6475 12.9658 15.6475 12.7058C15.6473 12.2649 15.734 11.8283 15.9026 11.421C16.0712 11.0136 16.3184 10.6435 16.6302 10.3318C16.9419 10.02 17.312 9.7728 17.7194 9.60419C18.1267 9.43558 18.5633 9.3489 19.0042 9.34912C19.9708 9.34912 20.8433 9.75412 21.4567 10.4091C22.2081 10.2638 22.9288 9.98947 23.5867 9.59829C23.3362 10.374 22.8115 11.0317 22.1108 11.4483C22.7773 11.3723 23.4287 11.197 24.0433 10.9283C23.5843 11.5975 23.0154 12.1844 22.3608 12.6641Z" fill="#5CE1E6"/>
</svg>
