<?xml version="1.0" encoding="UTF-8" standalone="no"?>
<svg
   xmlns:dc="http://purl.org/dc/elements/1.1/"
   xmlns:cc="http://creativecommons.org/ns#"
   xmlns:rdf="http://www.w3.org/1999/02/22-rdf-syntax-ns#"
   xmlns:svg="http://www.w3.org/2000/svg"
   xmlns="http://www.w3.org/2000/svg"
   id="svg3578"
   version="1.1"
   viewBox="0 0 117.40372 117.96806"
   height="117.96806mm"
   width="117.40372mm">
  <defs
     id="defs3572" />
  <metadata
     id="metadata3575">
    <rdf:RDF>
      <cc:Work
         rdf:about="">
        <dc:format>image/svg+xml</dc:format>
        <dc:type
           rdf:resource="http://purl.org/dc/dcmitype/StillImage" />
        <dc:title></dc:title>
      </cc:Work>
    </rdf:RDF>
  </metadata>
  <g
     transform="translate(-46.188937,-108.99897)"
     id="layer1">
    <ellipse
       ry="53.984039"
       rx="53.701874"
       cy="167.983"
       cx="104.8908"
       id="path14-6-30"
       style="fill:#002255;fill-opacity:0.969072;stroke:#5ce1e6;stroke-width:9.99998;stroke-linecap:round;stroke-linejoin:round;stroke-miterlimit:4;stroke-dasharray:none;stroke-opacity:1;paint-order:stroke markers fill" />
    <path
       style="fill:none;stroke:#5ce1e6;stroke-width:1.4;stroke-linecap:butt;stroke-linejoin:miter;stroke-miterlimit:4;stroke-dasharray:none;stroke-opacity:0.4"
       d="m 106.53074,109.15316 c -3e-5,38.38566 -5e-5,76.77076 -8e-5,115.15534"
       id="path1305-9" />
    <path
       id="path1305-6-6"
       d="m 49.341222,166.49172 c 37.79131,-0.0991 75.582118,-0.19812 113.372358,-0.29718"
       style="fill:none;stroke:#5ce1e6;stroke-width:1.38935;stroke-linecap:butt;stroke-linejoin:miter;stroke-miterlimit:4;stroke-dasharray:none;stroke-opacity:0.454902" />
    <path
       id="path1305-6-4-3-4"
       d="m 65.872022,125.05478 c 26.483425,27.00959 52.966588,54.0189 79.449298,81.02776"
       style="fill:none;stroke:#5ce1e6;stroke-width:1.37962;stroke-linecap:butt;stroke-linejoin:miter;stroke-miterlimit:4;stroke-dasharray:none;stroke-opacity:0.454902" />
    <path
       style="fill:none;stroke:#5ce1e6;stroke-width:1.4;stroke-linecap:butt;stroke-linejoin:miter;stroke-miterlimit:4;stroke-dasharray:none;stroke-opacity:0.454902"
       d="m 72.082642,121.37334 c 23.154289,30.61594 46.308248,61.23145 69.461878,91.84652"
       id="path1305-6-4-3-5-31" />
    <path
       id="path1305-6-4-3-5-9-3"
       d="m 139.69492,122.67302 c -23.15429,30.61594 -46.308267,61.23147 -69.461918,91.84656"
       style="fill:none;stroke:#5ce1e6;stroke-width:1.4;stroke-linecap:butt;stroke-linejoin:miter;stroke-miterlimit:4;stroke-dasharray:none;stroke-opacity:0.454902" />
    <path
       id="path1305-6-4-3-5-3-2"
       d="m 78.336022,116.72266 c 18.796714,33.46849 37.593188,66.93655 56.389358,100.40408"
       style="fill:none;stroke:#5ce1e6;stroke-width:1.4;stroke-linecap:butt;stroke-linejoin:miter;stroke-miterlimit:4;stroke-dasharray:none;stroke-opacity:0.4" />
    <path
       style="fill:none;stroke:#5ce1e6;stroke-width:1.4;stroke-linecap:butt;stroke-linejoin:miter;stroke-miterlimit:4;stroke-dasharray:none;stroke-opacity:0.454902"
       d="m 135.15156,117.16082 c -19.40922,33.11703 -38.818185,66.23363 -58.226878,99.34976"
       id="path1305-6-4-3-5-3-6-8" />
    <path
       style="fill:none;stroke:#5ce1e6;stroke-width:1.35521;stroke-linecap:butt;stroke-linejoin:miter;stroke-miterlimit:4;stroke-dasharray:none;stroke-opacity:0.454902"
       d="m 146.26958,127.2181 c -26.41207,26.13372 -52.823148,52.26647 -79.234178,78.39916"
       id="path1305-6-4-3-0-2" />
    <path
       id="path1305-6-4-3-5-4-8"
       d="M 151.72718,132.33984 C 121.11945,155.50499 90.512167,178.6698 59.905302,201.8343"
       style="fill:none;stroke:#5ce1e6;stroke-width:1.4;stroke-linecap:butt;stroke-linejoin:miter;stroke-miterlimit:4;stroke-dasharray:none;stroke-opacity:0.454902" />
    <path
       style="fill:none;stroke:#5ce1e6;stroke-width:1.38225;stroke-linecap:butt;stroke-linejoin:miter;stroke-miterlimit:4;stroke-dasharray:none;stroke-opacity:0.454902"
       d="M 149.80002,200.81276 C 119.86195,177.50747 89.923416,154.20182 59.985722,130.89682"
       id="path1305-6-4-3-5-9-6-2" />
    <path
       style="fill:none;stroke:#5ce1e6;stroke-width:1.37491;stroke-linecap:butt;stroke-linejoin:miter;stroke-miterlimit:4;stroke-dasharray:none;stroke-opacity:0.454902"
       d="m 154.35132,138.89552 c -32.61166,19.01703 -65.223463,38.03415 -97.834478,57.0508"
       id="path1305-6-4-3-5-3-8-2" />
    <path
       id="path1305-6-4-3-5-3-6-0-9"
       d="M 155.96206,195.40728 C 122.83816,176.0098 89.714677,156.61257 56.591702,137.21564"
       style="fill:none;stroke:#5ce1e6;stroke-width:1.4;stroke-linecap:butt;stroke-linejoin:miter;stroke-miterlimit:4;stroke-dasharray:none;stroke-opacity:0.454902" />
    <path
       id="path1305-6-4-3-5-3-8-9-4"
       d="M 53.638242,189.31012 C 88.374688,174.42491 123.11106,159.53974 157.84674,144.65486"
       style="fill:none;stroke:#5ce1e6;stroke-width:1.37628;stroke-linecap:butt;stroke-linejoin:miter;stroke-miterlimit:4;stroke-dasharray:none;stroke-opacity:0.454902" />
    <path
       style="fill:none;stroke:#5ce1e6;stroke-width:1.37866;stroke-linecap:butt;stroke-linejoin:miter;stroke-miterlimit:4;stroke-dasharray:none;stroke-opacity:0.454902"
       d="M 159.69744,187.67008 C 124.69225,173.50472 89.687797,159.33966 54.683702,145.17474"
       id="path1305-6-4-3-5-3-8-9-8-2" />
    <path
       style="fill:none;stroke:#5ce1e6;stroke-width:1.37591;stroke-linecap:butt;stroke-linejoin:miter;stroke-miterlimit:4;stroke-dasharray:none;stroke-opacity:0.4"
       d="m 86.137562,113.09996 c 13.329941,35.31445 26.659728,70.6285 39.989318,105.94202"
       id="path1305-6-4-3-5-3-0-4" />
    <path
       id="path1305-6-4-3-5-3-0-5-5"
       d="M 126.70616,114.09244 C 113.06514,149.26203 99.424129,184.43159 85.783402,219.60042"
       style="fill:none;stroke:#5ce1e6;stroke-width:1.37283;stroke-linecap:butt;stroke-linejoin:miter;stroke-miterlimit:4;stroke-dasharray:none;stroke-opacity:0.4" />
    <path
       style="fill:none;stroke:#5ce1e6;stroke-width:1.4;stroke-linecap:butt;stroke-linejoin:miter;stroke-miterlimit:4;stroke-dasharray:none;stroke-opacity:0.4"
       d="M 118.43412,110.62626 C 110.5683,148.19735 102.7026,185.7679 94.837002,223.33792"
       id="path1305-6-4-3-5-3-0-5-2-6" />
    <path
       id="path1305-6-4-3-5-3-0-5-2-9-7"
       d="M 116.91038,224.47666 C 109.86126,186.74383 102.81223,149.01152 95.7633,111.27972"
       style="fill:none;stroke:#5ce1e6;stroke-width:1.4;stroke-linecap:butt;stroke-linejoin:miter;stroke-miterlimit:4;stroke-dasharray:none;stroke-opacity:0.4" />
    <path
       style="fill:none;stroke:#5ce1e6;stroke-width:1.4;stroke-linecap:butt;stroke-linejoin:miter;stroke-miterlimit:4;stroke-dasharray:none;stroke-opacity:0.454902"
       d="M 49.013442,181.22902 C 86.195596,171.69268 123.37728,162.15647 160.5584,152.6204"
       id="path1305-6-4-3-5-3-8-9-7-2" />
    <path
       id="path1305-6-4-3-5-3-8-9-7-6-2"
       d="M 47.680042,174.28008 C 85.751163,169.37645 123.82177,164.47289 161.8918,159.5694"
       style="fill:none;stroke:#5ce1e6;stroke-width:1.4;stroke-linecap:butt;stroke-linejoin:miter;stroke-miterlimit:4;stroke-dasharray:none;stroke-opacity:0.454902" />
    <path
       id="path1305-6-4-3-5-3-8-9-7-1-8"
       d="m 51.920604,151.75054 c 36.497705,9.49435 72.994096,18.98835 109.490336,28.48232"
       style="fill:none;stroke:#5ce1e6;stroke-width:1.38398;stroke-linecap:butt;stroke-linejoin:miter;stroke-miterlimit:4;stroke-dasharray:none;stroke-opacity:0.454902" />
    <path
       style="fill:none;stroke:#5ce1e6;stroke-width:1.36847;stroke-linecap:butt;stroke-linejoin:miter;stroke-miterlimit:4;stroke-dasharray:none;stroke-opacity:0.454902"
       d="m 50.584782,158.68592 c 37.501833,4.75631 75.003668,9.51263 112.504698,14.26884"
       id="path1305-6-4-3-5-3-8-9-7-6-8-7" />
    <ellipse
       style="fill:#5ce1e6;fill-opacity:0.980392;stroke:#002255;stroke-width:2.20266;stroke-linecap:round;stroke-linejoin:round;stroke-miterlimit:4;stroke-dasharray:none;stroke-opacity:1;paint-order:stroke markers fill"
       id="path14-0-8-5"
       cx="105.21716"
       cy="168.15649"
       rx="47.285572"
       ry="46.471073" />
    <ellipse
       ry="44.668346"
       rx="45.773636"
       cy="168.35617"
       cx="105.21799"
       id="path14-0-8-1-0"
       style="fill:#002255;fill-opacity:1;stroke:#5ce1e6;stroke-width:2.12472;stroke-linecap:round;stroke-linejoin:round;stroke-miterlimit:4;stroke-dasharray:none;stroke-opacity:0.4;paint-order:stroke markers fill" />
    <path
       id="path882-83-9"
       d="m 116.50008,119.53796 c -9.58178,5.72593 -19.162914,11.45147 -26.807234,16.33344 -7.644319,4.88197 -13.350366,8.91945 -10.708961,12.76009 2.641406,3.84064 13.629307,7.48406 24.616895,11.12737"
       style="fill:none;stroke:#5ce1e6;stroke-width:3.33;stroke-linecap:butt;stroke-linejoin:miter;stroke-miterlimit:4;stroke-dasharray:none;stroke-opacity:1" />
    <path
       id="path886-3-1"
       d="m 110.2109,163.01912 c 13.01368,3.97703 26.02634,7.95375 26.92003,11.53582 0.89369,3.58208 -10.33134,6.76915 -22.85369,10.36106 -12.52234,3.59192 -26.341512,7.58855 -40.160738,11.5852"
       style="fill:none;stroke:#5ce1e6;stroke-width:3.33;stroke-linecap:butt;stroke-linejoin:miter;stroke-miterlimit:4;stroke-dasharray:none;stroke-opacity:1" />
    <path
       style="fill:none;stroke:#5ce1e6;stroke-width:3.33;stroke-linecap:butt;stroke-linejoin:miter;stroke-miterlimit:4;stroke-dasharray:none;stroke-opacity:0.56701"
       d="m 115.99442,125.96206 c -9.58181,6.05919 -19.163554,12.11834 -26.716163,17.0068 -7.55261,4.88846 -13.075671,8.60596 -10.676734,12.15081 2.398936,3.54485 12.719437,6.91641 23.039577,10.28785"
       id="path882-8-6-0" />
    <path
       style="fill:none;stroke:#5ce1e6;stroke-width:3.33;stroke-linecap:butt;stroke-linejoin:miter;stroke-miterlimit:4;stroke-dasharray:none;stroke-opacity:0.56701"
       d="m 109.1157,168.25476 c 13.23988,4.62324 26.47869,9.24612 27.8409,12.95743 1.36221,3.71131 -9.15203,6.51068 -21.5128,9.87643 -12.36077,3.36574 -26.567664,7.29776 -40.774658,11.2298"
       id="path886-4-8-7" />
    <path
       style="fill:none;stroke:#5ce1e6;stroke-width:3.33;stroke-linecap:butt;stroke-linejoin:miter;stroke-miterlimit:4;stroke-dasharray:none;stroke-opacity:1"
       d="m 116.01542,132.52878 c -9.42022,5.99455 -18.840412,11.98908 -26.403635,16.82239 -7.563223,4.8333 -13.269265,8.50523 -11.17718,11.92076 2.092084,3.41553 11.981462,6.5743 21.870475,9.73295"
       id="path882-3-5-6" />
    <path
       style="fill:none;stroke:#5ce1e6;stroke-width:3.33;stroke-linecap:butt;stroke-linejoin:miter;stroke-miterlimit:4;stroke-dasharray:none;stroke-opacity:1"
       d="m 107.8766,173.20684 c 13.75684,4.7848 27.51265,9.56925 29.06872,13.45828 1.55608,3.88902 -9.08742,6.88225 -21.41587,10.31262 -12.32846,3.43036 -26.341505,7.29776 -40.354628,11.16518"
       id="path886-2-8-6" />
    <ellipse
       style="fill:none;fill-opacity:0.980392;stroke:#002255;stroke-width:2;stroke-linecap:round;stroke-linejoin:round;stroke-miterlimit:4;stroke-dasharray:none;stroke-opacity:1;paint-order:stroke markers fill"
       id="path14-6-5-8"
       cx="104.66032"
       cy="167.74789"
       rx="53.701874"
       ry="53.984039" />
    <ellipse
       style="fill:none;fill-opacity:0.980392;stroke:#5ce1e6;stroke-width:0.65515;stroke-linecap:round;stroke-linejoin:round;stroke-miterlimit:4;stroke-dasharray:none;stroke-opacity:0.4;paint-order:stroke markers fill"
       id="path14-0-8-1-2-45"
       cx="105.50384"
       cy="167.30573"
       rx="14.293984"
       ry="13.599944" />
    <ellipse
       ry="15.878386"
       rx="16.087763"
       cy="167.31241"
       cx="105.46445"
       id="path14-0-8-1-2-4-5"
       style="fill:none;fill-opacity:0.980392;stroke:#5ce1e6;stroke-width:0.751014;stroke-linecap:round;stroke-linejoin:round;stroke-miterlimit:4;stroke-dasharray:none;stroke-opacity:0.4;paint-order:stroke markers fill" />
  </g>
</svg>
